<svg id="レイヤー_1" data-name="レイヤー 1" xmlns="http://www.w3.org/2000/svg" width="523.53" height="206.02" viewBox="0 0 523.53 206.02">
  <g>
    <g>
      <path d="M57,107.56A50.57,50.57,0,1,1,107.56,57,50.56,50.56,0,0,1,57,107.56M57,0a57,57,0,1,0,57,57A57,57,0,0,0,57,0" fill="#4b1e78"/>
      <path d="M75.9,67.91A2.86,2.86,0,0,1,72,69l-7-4V61.65L67.9,60l6.95,4a2.85,2.85,0,0,1,1.05,3.89m-15.63-9L57,60.77l-3.28-1.89V55.1L57,53.21l3.27,1.89ZM54.15,38a2.85,2.85,0,1,1,5.69,0v8L57,47.69,54.15,46ZM48.93,64.93l-7,4A2.84,2.84,0,1,1,39.14,64l7-4,2.84,1.65ZM98.42,80l-8.28-9.67a1.79,1.79,0,0,0-.36-.3,1.43,1.43,0,0,0-1.33,0,4.45,4.45,0,0,1-4.1-.17,4.37,4.37,0,0,1-2.13-3h0a11.19,11.19,0,0,0-5.41-7.64L73.11,57,94.18,44.83l-2.6-4.52L67.9,54l-2.85-1.64V49.05L88.73,35.39l-2.61-4.52L65.05,43V38.75a11.12,11.12,0,0,0-3.91-8.49,4.42,4.42,0,0,1,.37-7,1.41,1.41,0,0,0,.62-1.18,1.77,1.77,0,0,0-.07-.46l-4.23-12a.88.88,0,0,0-1.67,0l-4.23,12a1.43,1.43,0,0,0-.07.46,1.41,1.41,0,0,0,.62,1.18h0a4.42,4.42,0,0,1,.36,7,11.16,11.16,0,0,0-3.91,8.49V43L27.87,30.87l-2.61,4.52L48.93,49.05v3.29L46.09,54,22.41,40.31l-2.6,4.52L40.87,57l-3.7,2.14a11.16,11.16,0,0,0-5.41,7.64h0a4.36,4.36,0,0,1-2.12,3,4.45,4.45,0,0,1-4.1.17,1.43,1.43,0,0,0-1.33,0,1.79,1.79,0,0,0-.36.3l-8.28,9.66a.88.88,0,0,0,.84,1.45l12.5-2.34a1.41,1.41,0,0,0,1.15-1.29,4.4,4.4,0,0,1,2.19-3.46A4.35,4.35,0,0,1,35.91,74a11.2,11.2,0,0,0,9.32-.87L48.93,71V95.28h5.22V67.94L57,66.3l2.84,1.64V95.28h5.21V71l3.71,2.13a11.2,11.2,0,0,0,9.32.87,4.35,4.35,0,0,1,3.66.34,4.4,4.4,0,0,1,2.19,3.46,1.43,1.43,0,0,0,.71,1.13,1.46,1.46,0,0,0,.44.16l12.5,2.34a.9.9,0,0,0,.94-.42.89.89,0,0,0-.1-1" fill="#4b1e78"/>
      <polygon points="436.46 45.42 417.44 45.42 417.44 7.39 400.07 7.39 400.07 106.6 417.44 106.6 417.44 63.03 436.46 63.03 436.46 106.6 454.22 106.6 454.22 7.39 436.46 7.39 436.46 45.42" fill="#4b1e78"/>
      <polygon points="169.01 7.39 155.88 46.04 144 7.39 126.67 7.39 145.96 68.22 145.96 106.6 165.26 106.6 165.26 66.25 185.25 7.39 169.01 7.39" fill="#4b1e78"/>
      <polygon points="285.93 54.58 276.28 7.39 249.15 7.39 249.15 106.6 264.71 106.6 264.71 31.81 277.98 96.83 292.51 96.83 304.28 30.76 304.28 106.6 322.52 106.6 322.52 7.39 294.25 7.39 285.93 54.58" fill="#4b1e78"/>
      <path d="M484.84,67l7.39-44.37L499.41,67ZM507.16,7.39H480.29L462.16,106.6h16.08l3.84-23.09h20l3.72,23.09h17.72Z" fill="#4b1e78"/>
      <path d="M353.15,67l7.39-44.37L367.72,67ZM348.6,7.39,330.46,106.6h16.08l3.85-23.09h20l3.73,23.09h17.71L375.46,7.39Z" fill="#4b1e78"/>
      <path d="M202.23,67l7.4-44.37L216.8,67ZM197.68,7.39,179.54,106.6h16.09l3.85-23.09h20l3.74,23.09h17.71L224.55,7.39Z" fill="#4b1e78"/>
    </g>
  </g>
</svg>
